# Blender 3.4.1
# www.blender.org
o Plane
v 0.691578 0.036728 -0.006724
v -0.691578 0.036728 -0.006724
v 0.691578 2.000684 0.006724
v -0.186901 1.488272 0.220657
v 0.691578 1.018706 0.000000
v -0.691578 1.018706 0.000000
v -0.691578 1.509695 0.003362
v 0.691578 1.509695 0.003362
v 0.000000 0.036728 -0.006724
v 0.000000 2.000684 0.006724
v 0.000000 1.018706 0.000000
v 0.000000 1.509695 0.003362
v -0.345789 0.036728 -0.006724
v -0.086752 1.720571 0.148356
v -0.345789 1.018706 0.000000
v -0.345789 1.509695 0.003362
v -0.432541 1.475076 0.146676
v 0.691578 1.755189 0.005043
v 0.000000 1.755189 0.005043
v -0.345789 1.755189 0.005043
v 0.695920 0.037998 -0.021672
v -0.687237 0.037998 -0.021672
v 0.695920 2.001952 -0.008225
v -0.182559 1.489542 0.205709
v 0.695920 1.019976 -0.014949
v -0.687237 1.019976 -0.014949
v -0.687237 1.510964 -0.011587
v 0.695920 1.510964 -0.011587
v 0.004342 0.037998 -0.021672
v 0.004342 2.001952 -0.008225
v 0.004342 1.019976 -0.014949
v 0.004342 1.510964 -0.011587
v -0.341447 0.037998 -0.021672
v -0.082410 1.721840 0.133408
v -0.341447 1.019976 -0.014949
v -0.341447 1.510964 -0.011587
v -0.428199 1.476346 0.131727
v 0.695920 1.756458 -0.009905
v 0.004342 1.756458 -0.009905
v -0.341447 1.756458 -0.009905
vn -0.3945 0.4238 0.8153
vn -0.0000 0.0068 -1.0000
vn -0.3642 0.5076 0.7808
vn 0.2742 -0.5002 -0.8213
vn -0.0000 -0.0068 1.0000
vn 0.3642 -0.5076 -0.7808
vn -0.2742 0.5002 0.8213
vn 0.3945 -0.4238 -0.8153
vt 0.000000 0.000000
vt 1.000000 0.000000
vt 0.000000 1.000000
vt 1.000000 1.000000
vt 0.000000 0.500000
vt 1.000000 0.500000
vt 1.000000 0.750000
vt 0.000000 0.750000
vt 0.500000 0.000000
vt 0.500000 1.000000
vt 0.500000 0.500000
vt 0.500000 0.750000
vt 0.750000 0.000000
vt 0.750000 1.000000
vt 0.750000 0.500000
vt 0.750000 0.750000
vt 1.000000 0.875000
vt 0.000000 0.875000
vt 0.500000 0.875000
vt 0.750000 0.875000
vt 0.000000 0.000000
vt 1.000000 0.000000
vt 0.000000 1.000000
vt 1.000000 1.000000
vt 0.000000 0.500000
vt 1.000000 0.500000
vt 1.000000 0.750000
vt 0.000000 0.750000
vt 0.500000 0.000000
vt 0.500000 1.000000
vt 0.500000 0.500000
vt 0.500000 0.750000
vt 0.750000 0.000000
vt 0.750000 1.000000
vt 0.750000 0.500000
vt 0.750000 0.750000
vt 1.000000 0.875000
vt 0.000000 0.875000
vt 0.500000 0.875000
vt 0.750000 0.875000
s 0
f 20/20/1 4/4/1 14/14/1
f 2/2/2 15/15/2 13/13/2
f 6/6/2 16/16/2 15/15/2
f 11/11/2 8/8/2 5/5/2
f 9/9/2 5/5/2 1/1/2
f 19/19/2 3/3/2 18/18/2
f 15/15/2 12/12/2 11/11/2
f 13/13/2 11/11/2 9/9/2
f 19/19/2 20/20/2 10/10/2
f 16/16/2 19/19/2 12/12/2
f 12/12/2 18/18/2 8/8/2
f 16/16/2 7/7/2 20/20/2
f 20/20/3 7/7/3 17/17/3
f 10/10/3 20/20/3 14/14/3
f 40/40/4 24/24/4 37/37/4
f 35/35/5 22/22/5 33/33/5
f 36/36/5 26/26/5 35/35/5
f 28/28/5 31/31/5 25/25/5
f 25/25/5 29/29/5 21/21/5
f 23/23/5 39/39/5 38/38/5
f 32/32/5 35/35/5 31/31/5
f 31/31/5 33/33/5 29/29/5
f 39/39/5 30/30/5 40/40/5
f 39/39/5 36/36/5 32/32/5
f 38/38/5 32/32/5 28/28/5
f 36/36/5 40/40/5 27/27/5
f 40/40/6 37/37/6 27/27/6
f 30/30/6 34/34/6 40/40/6
f 20/20/7 17/17/7 4/4/7
f 2/2/2 6/6/2 15/15/2
f 6/6/2 7/7/2 16/16/2
f 11/11/2 12/12/2 8/8/2
f 9/9/2 11/11/2 5/5/2
f 19/19/2 10/10/2 3/3/2
f 15/15/2 16/16/2 12/12/2
f 13/13/2 15/15/2 11/11/2
f 16/16/2 20/20/2 19/19/2
f 12/12/2 19/19/2 18/18/2
f 40/40/8 34/34/8 24/24/8
f 35/35/5 26/26/5 22/22/5
f 36/36/5 27/27/5 26/26/5
f 28/28/5 32/32/5 31/31/5
f 25/25/5 31/31/5 29/29/5
f 23/23/5 30/30/5 39/39/5
f 32/32/5 36/36/5 35/35/5
f 31/31/5 35/35/5 33/33/5
f 39/39/5 40/40/5 36/36/5
f 38/38/5 39/39/5 32/32/5
