# Blender 3.4.1
# www.blender.org
o Plane
v 0.864473 -1.227472 -0.007471
v -0.864473 -1.227472 -0.007471
v 0.864473 1.227472 0.007471
v -0.233626 0.586958 0.245174
v 0.864473 0.000000 0.000000
v -0.864473 0.000000 0.000000
v -0.864473 0.613736 0.003735
v 0.864473 0.613736 0.003735
v 0.000000 -1.227472 -0.007471
v 0.000000 1.227472 0.007471
v 0.000000 0.000000 0.000000
v 0.000000 0.613736 0.003735
v -0.432236 -1.227472 -0.007471
v -0.108440 0.877331 0.164840
v -0.432236 0.000000 0.000000
v -0.432236 0.613736 0.003735
v -0.540676 0.570463 0.162973
v 0.864473 0.920604 0.005603
v 0.000000 0.920604 0.005603
v -0.432236 0.920604 0.005603
v 0.869900 -1.225885 -0.024080
v -0.859046 -1.225885 -0.024080
v 0.869900 1.229058 -0.009139
v -0.228199 0.588545 0.228565
v 0.869900 0.001587 -0.016610
v -0.859046 0.001587 -0.016610
v -0.859046 0.615323 -0.012874
v 0.869900 0.615323 -0.012874
v 0.005427 -1.225885 -0.024080
v 0.005427 1.229058 -0.009139
v 0.005427 0.001587 -0.016610
v 0.005427 0.615323 -0.012874
v -0.426809 -1.225885 -0.024080
v -0.103013 0.878918 0.148231
v -0.426809 0.001587 -0.016610
v -0.426809 0.615323 -0.012874
v -0.535249 0.572050 0.146363
v 0.869900 0.922190 -0.011006
v 0.005427 0.922190 -0.011006
v -0.426809 0.922190 -0.011006
vn -0.3636 0.3907 0.8456
vn -0.0000 0.0061 -1.0000
vn -0.3378 0.4709 0.8149
vn 0.2525 -0.4606 -0.8509
vn -0.0000 -0.0061 1.0000
vn 0.3378 -0.4709 -0.8149
vn -0.2525 0.4606 0.8509
vn 0.3636 -0.3907 -0.8456
vt 0.000000 0.000000
vt 1.000000 0.000000
vt 0.000000 1.000000
vt 1.000000 1.000000
vt 0.000000 0.500000
vt 1.000000 0.500000
vt 1.000000 0.750000
vt 0.000000 0.750000
vt 0.500000 0.000000
vt 0.500000 1.000000
vt 0.500000 0.500000
vt 0.500000 0.750000
vt 0.750000 0.000000
vt 0.750000 1.000000
vt 0.750000 0.500000
vt 0.750000 0.750000
vt 1.000000 0.875000
vt 0.000000 0.875000
vt 0.500000 0.875000
vt 0.750000 0.875000
vt 0.000000 0.000000
vt 1.000000 0.000000
vt 0.000000 1.000000
vt 1.000000 1.000000
vt 0.000000 0.500000
vt 1.000000 0.500000
vt 1.000000 0.750000
vt 0.000000 0.750000
vt 0.500000 0.000000
vt 0.500000 1.000000
vt 0.500000 0.500000
vt 0.500000 0.750000
vt 0.750000 0.000000
vt 0.750000 1.000000
vt 0.750000 0.500000
vt 0.750000 0.750000
vt 1.000000 0.875000
vt 0.000000 0.875000
vt 0.500000 0.875000
vt 0.750000 0.875000
s 0
f 20/20/1 4/4/1 14/14/1
f 2/2/2 15/15/2 13/13/2
f 6/6/2 16/16/2 15/15/2
f 11/11/2 8/8/2 5/5/2
f 9/9/2 5/5/2 1/1/2
f 19/19/2 3/3/2 18/18/2
f 15/15/2 12/12/2 11/11/2
f 13/13/2 11/11/2 9/9/2
f 19/19/2 20/20/2 10/10/2
f 16/16/2 19/19/2 12/12/2
f 12/12/2 18/18/2 8/8/2
f 16/16/2 7/7/2 20/20/2
f 20/20/3 7/7/3 17/17/3
f 10/10/3 20/20/3 14/14/3
f 40/40/4 24/24/4 37/37/4
f 35/35/5 22/22/5 33/33/5
f 36/36/5 26/26/5 35/35/5
f 28/28/5 31/31/5 25/25/5
f 25/25/5 29/29/5 21/21/5
f 23/23/5 39/39/5 38/38/5
f 32/32/5 35/35/5 31/31/5
f 31/31/5 33/33/5 29/29/5
f 39/39/5 30/30/5 40/40/5
f 39/39/5 36/36/5 32/32/5
f 38/38/5 32/32/5 28/28/5
f 36/36/5 40/40/5 27/27/5
f 40/40/6 37/37/6 27/27/6
f 30/30/6 34/34/6 40/40/6
f 20/20/7 17/17/7 4/4/7
f 2/2/2 6/6/2 15/15/2
f 6/6/2 7/7/2 16/16/2
f 11/11/2 12/12/2 8/8/2
f 9/9/2 11/11/2 5/5/2
f 19/19/2 10/10/2 3/3/2
f 15/15/2 16/16/2 12/12/2
f 13/13/2 15/15/2 11/11/2
f 16/16/2 20/20/2 19/19/2
f 12/12/2 19/19/2 18/18/2
f 40/40/8 34/34/8 24/24/8
f 35/35/5 26/26/5 22/22/5
f 36/36/5 27/27/5 26/26/5
f 28/28/5 32/32/5 31/31/5
f 25/25/5 31/31/5 29/29/5
f 23/23/5 30/30/5 39/39/5
f 32/32/5 36/36/5 35/35/5
f 31/31/5 35/35/5 33/33/5
f 39/39/5 40/40/5 36/36/5
f 38/38/5 39/39/5 32/32/5
